<svg width="111" height="41" viewBox="0 0 111 41" fill="none" xmlns="http://www.w3.org/2000/svg">
<path fill-rule="evenodd" clip-rule="evenodd" d="M23.19 23.719C20.0382 22.5556 17.4603 20.2076 15.9962 17.2152H18.0122C19.2084 19.2383 21.0203 20.8542 23.19 21.8049V23.719ZM21.6182 24.9932H9.33882V40.3892H0.708496V0.966766H25.8004V8.95781H9.33882V17.2152H14.0468C15.494 20.6683 18.2132 23.4563 21.6182 24.9932ZM31.7154 25.7446C34.9867 24.824 37.7987 22.8068 39.7296 20.1149C40.0404 22.7237 40.0794 25.6728 40.0794 29.3616V32.9874C38.1465 30.0408 35.19 27.8259 31.7154 26.848V25.7446ZM31.7154 28.7032V30.5859C35.734 32.1232 38.6451 35.8998 38.922 40.3892H40.0794V37.0496C38.7911 33.1016 35.667 29.9834 31.7154 28.7032ZM37.1424 40.3892C36.8862 36.8973 34.7363 33.9315 31.7154 32.5145V34.5288C33.733 35.7661 35.1361 37.9076 35.3609 40.3892H37.1424ZM33.5758 40.3892C33.406 38.9546 32.7229 37.6771 31.7154 36.7456V40.3892H33.5758ZM39.9349 19.8214C41.5503 17.4505 42.4947 14.5857 42.4947 11.5003H40.7192C40.7192 17.2897 36.9408 22.1965 31.7154 23.8894V22.0067C35.9422 20.3898 38.9437 16.2956 38.9437 11.5003H37.1681C37.1681 15.2942 34.9371 18.5669 31.7154 20.0781V18.0638C33.9212 16.7111 35.3926 14.2775 35.3926 11.5003H33.6171C33.6171 13.2186 32.8849 14.7658 31.7154 15.847V0.966766H40.0794L51.7996 30.3738L63.573 0.966766H72.0435V40.3892H63.6796V32.1318C63.6796 23.608 63.6796 21.7435 64.1058 18.8134L55.7418 40.3892H47.8573L39.9349 19.8214ZM22.5473 17.2152C22.7519 17.3997 22.9664 17.5734 23.19 17.7354V19.8295C21.9985 19.1832 20.9612 18.2886 20.1476 17.2152H22.5473Z" fill="#24221B"/>
<g clip-path="url(#clip0_11_214)">
<path fill-rule="evenodd" clip-rule="evenodd" d="M96.487 20.326C96.487 20.326 98.2391 15.6339 98.2391 12.3162C98.2391 8.99837 97.4547 6.30877 96.487 6.30877C95.5193 6.30877 94.7348 8.99837 94.7348 12.3162C94.7348 15.6339 96.487 20.326 96.487 20.326ZM96.487 20.326C96.487 20.326 101.179 18.5739 104.497 18.5739C107.815 18.5739 110.504 19.3583 110.504 20.326C110.504 21.2938 107.815 22.0782 104.497 22.0782C101.182 22.0782 96.4957 20.3292 96.487 20.326ZM96.487 20.326C96.487 20.326 94.7348 25.0181 94.7348 28.3359C94.7348 31.6536 95.5193 34.3432 96.487 34.3432C97.4547 34.3432 98.2391 31.6536 98.2391 28.3359C98.2391 25.0211 96.4902 20.3347 96.487 20.326ZM96.487 20.326C96.487 20.326 91.7949 22.0782 88.4771 22.0782C85.1593 22.0782 82.4697 21.2938 82.4697 20.326C82.4697 19.3583 85.1593 18.5739 88.4771 18.5739C91.7949 18.5739 96.487 20.326 96.487 20.326Z" fill="black"/>
</g>
<defs>
<clipPath id="clip0_11_214">
<rect width="28.0345" height="28.0345" fill="white" transform="translate(82.4697 6.30877)"/>
</clipPath>
</defs>
</svg>
