<svg width="93" height="93" viewBox="0 0 93 93" fill="none" xmlns="http://www.w3.org/2000/svg">
<path d="M82.2851 19.2976L90.9536 47.8995C91.2406 48.6032 97.7835 65.3438 78.9624 84.3992C60.3605 103.233 38.9265 84.7709 38.6446 84.5198L2.70965 49.0267C-0.599203 45.7585 -0.812714 40.5913 2.41207 37.3264C3.76639 35.9552 6.33951 34.3398 7.13493 35.1254L3.73589 31.7682C0.427042 28.5 0.444201 23.0993 3.59133 19.913C4.84288 18.6459 6.47209 17.8751 8.10263 17.6903C6.02153 14.5111 6.28312 9.98674 8.99175 7.24439C9.02372 7.21202 9.0557 7.17965 9.08996 7.14497C9.12421 7.11028 9.15391 7.08022 9.18588 7.04785C12.2828 3.91242 17.3722 4.12455 20.6903 7.40186L20.7874 7.49778C20.8883 5.60579 21.5344 3.79545 22.8453 2.46821L22.8521 2.46127C22.9481 2.36416 25.259 0.33899 28.3972 0.1725C30.5866 0.0555428 33.0651 1.35245 35.0745 3.33711L60.8215 28.7677C61.4597 29.398 61.4661 30.4275 60.8358 31.0657C60.2054 31.7039 59.1759 31.7103 58.5377 31.0799L32.7906 5.64938C31.4703 4.3453 30.154 3.68928 28.9272 3.74283C27.2362 3.81764 26.0426 5.17403 25.9307 5.28733C23.9895 7.25276 24.0014 10.6723 26.0062 12.6524L47.0617 33.4491C47.6998 34.0794 47.7062 35.1089 47.0759 35.7471C46.4455 36.3853 45.416 36.3917 44.7778 35.7613L18.4064 9.71412C16.3508 7.68379 13.2866 7.56255 11.4022 9.42881C9.50692 11.3939 9.56635 14.6868 11.5549 16.6509L40.2386 44.982C40.8767 45.6123 40.8831 46.6418 40.2528 47.28C39.6224 47.9182 38.5929 47.9246 37.9547 47.2942L12.8713 22.5191C10.7347 20.4089 7.71925 20.3586 5.9036 22.1968C4.01717 24.1113 3.98725 27.4484 6.01974 29.4559L27.7458 50.9149C28.384 51.5452 28.3903 52.5748 27.76 53.2129C27.1297 53.8511 26.1001 53.8575 25.4619 53.2272L11.919 39.8507C11.8936 39.8256 12.0052 39.6709 11.9798 39.6458C9.9473 37.6383 6.76611 37.5477 4.79973 39.5385C2.83334 41.5294 2.96101 44.7069 4.99349 46.7144L40.8591 82.1437C41.6401 82.8283 60.2202 98.7498 76.6501 82.1153C93.8886 64.6624 88.1935 49.7505 87.8946 48.9893L79.2214 20.3691C79.2027 20.3232 77.4221 15.9333 73.8126 16.0774C72.0917 16.1455 70.8491 16.622 70.0366 17.5325C68.8659 18.8796 69.0297 20.8274 69.0297 20.8274L72.1894 42.7137C72.319 43.6 71.7035 44.422 70.815 44.5538C69.9264 44.6811 69.1021 44.068 68.9749 43.1795L65.808 21.2449C65.7933 21.1117 65.4494 17.8895 67.5531 15.4359C68.9725 13.8184 71.0101 12.9348 73.6822 12.8287C79.5686 12.5992 82.1355 18.9032 82.2851 19.2976Z" fill="#958679"/>
</svg>
